<svg width="21" height="20" viewBox="0 0 21 20" fill="none" xmlns="http://www.w3.org/2000/svg">
<mask id="mask0_1593_328" style="mask-type:alpha" maskUnits="userSpaceOnUse" x="0" y="0" width="21" height="20">
<rect x="0.5" width="20" height="20" fill="#D9D9D9"/>
</mask>
<g mask="url(#mask0_1593_328)">
<path d="M5.99563 11.5C5.58188 11.5 5.22917 11.3527 4.9375 11.0581C4.64583 10.7635 4.5 10.4094 4.5 9.99563C4.5 9.58188 4.64729 9.22917 4.94188 8.9375C5.23646 8.64583 5.59062 8.5 6.00437 8.5C6.41812 8.5 6.77083 8.64729 7.0625 8.94188C7.35417 9.23646 7.5 9.59062 7.5 10.0044C7.5 10.4181 7.35271 10.7708 7.05813 11.0625C6.76354 11.3542 6.40938 11.5 5.99563 11.5ZM10.4956 11.5C10.0819 11.5 9.72917 11.3527 9.4375 11.0581C9.14583 10.7635 9 10.4094 9 9.99563C9 9.58188 9.14729 9.22917 9.44187 8.9375C9.73646 8.64583 10.0906 8.5 10.5044 8.5C10.9181 8.5 11.2708 8.64729 11.5625 8.94188C11.8542 9.23646 12 9.59062 12 10.0044C12 10.4181 11.8527 10.7708 11.5581 11.0625C11.2635 11.3542 10.9094 11.5 10.4956 11.5ZM14.9956 11.5C14.5819 11.5 14.2292 11.3527 13.9375 11.0581C13.6458 10.7635 13.5 10.4094 13.5 9.99563C13.5 9.58188 13.6473 9.22917 13.9419 8.9375C14.2365 8.64583 14.5906 8.5 15.0044 8.5C15.4181 8.5 15.7708 8.64729 16.0625 8.94188C16.3542 9.23646 16.5 9.59062 16.5 10.0044C16.5 10.4181 16.3527 10.7708 16.0581 11.0625C15.7635 11.3542 15.4094 11.5 14.9956 11.5Z" fill="white"/>
<path d="M5.99563 11.5C5.58188 11.5 5.22917 11.3527 4.9375 11.0581C4.64583 10.7635 4.5 10.4094 4.5 9.99563C4.5 9.58188 4.64729 9.22917 4.94188 8.9375C5.23646 8.64583 5.59062 8.5 6.00437 8.5C6.41812 8.5 6.77083 8.64729 7.0625 8.94188C7.35417 9.23646 7.5 9.59062 7.5 10.0044C7.5 10.4181 7.35271 10.7708 7.05813 11.0625C6.76354 11.3542 6.40938 11.5 5.99563 11.5ZM10.4956 11.5C10.0819 11.5 9.72917 11.3527 9.4375 11.0581C9.14583 10.7635 9 10.4094 9 9.99563C9 9.58188 9.14729 9.22917 9.44187 8.9375C9.73646 8.64583 10.0906 8.5 10.5044 8.5C10.9181 8.5 11.2708 8.64729 11.5625 8.94188C11.8542 9.23646 12 9.59062 12 10.0044C12 10.4181 11.8527 10.7708 11.5581 11.0625C11.2635 11.3542 10.9094 11.5 10.4956 11.5ZM14.9956 11.5C14.5819 11.5 14.2292 11.3527 13.9375 11.0581C13.6458 10.7635 13.5 10.4094 13.5 9.99563C13.5 9.58188 13.6473 9.22917 13.9419 8.9375C14.2365 8.64583 14.5906 8.5 15.0044 8.5C15.4181 8.5 15.7708 8.64729 16.0625 8.94188C16.3542 9.23646 16.5 9.59062 16.5 10.0044C16.5 10.4181 16.3527 10.7708 16.0581 11.0625C15.7635 11.3542 15.4094 11.5 14.9956 11.5Z" fill="black" fill-opacity="0.6"/>
</g>
</svg>
